<svg width="19" height="18" viewBox="0 0 19 18" fill="none" xmlns="http://www.w3.org/2000/svg">
<path d="M18.2814 17.7801H14.5959V12.0055C14.5959 10.6288 14.5673 8.8569 12.6758 8.8569C10.7531 8.8569 10.4606 10.3545 10.4606 11.9041V17.7801H6.77506V5.9059H10.315V7.5244H10.3631C10.8571 6.591 12.0609 5.6056 13.8575 5.6056C17.5911 5.6056 18.2814 8.0639 18.2814 11.2619V17.7801ZM2.61246 4.2809C1.42556 4.2809 0.472656 3.3202 0.472656 2.1385C0.472656 0.9594 1.42686 0 2.61246 0C3.79416 0 4.75226 0.9594 4.75226 2.1385C4.75226 3.3202 3.79416 4.2809 2.61246 4.2809ZM4.45976 17.7801H0.765156V5.9059H4.45976V17.7801Z" fill="#333333"/>
</svg>
