<svg width="21" height="14" viewBox="0 0 21 14" fill="none" xmlns="http://www.w3.org/2000/svg">
<path d="M20.365 2.13869C20.2467 1.72529 20.0179 1.35219 19.7007 1.05709C19.3757 0.752894 18.9766 0.535794 18.5411 0.425294C16.9148 0.00409444 10.394 0.00409444 10.394 0.00409444C7.67573 -0.0258056 4.95873 0.108094 2.25733 0.404494C1.82183 0.522794 1.42403 0.745094 1.09773 1.05189C0.776633 1.35479 0.545233 1.72789 0.423033 2.13739C0.131833 3.67919 -0.00986656 5.24439 0.000533437 6.81349C-0.00986656 8.37999 0.131833 9.94519 0.423033 11.4896C0.542633 11.8965 0.774033 12.2683 1.09513 12.5686C1.41623 12.8702 1.81663 13.086 2.25733 13.2017C3.90573 13.6216 10.394 13.6216 10.394 13.6216C13.1162 13.6528 15.8371 13.5189 18.5411 13.2225C18.9766 13.112 19.3757 12.8949 19.7007 12.5907C20.0179 12.2956 20.2467 11.9225 20.3637 11.5091C20.6627 9.96859 20.8083 8.40209 20.7979 6.83299C20.8213 5.25739 20.6757 3.68439 20.365 2.13869ZM8.32183 9.72679V3.90019L13.7467 6.81349L8.32183 9.72679Z" fill="#333333"/>
</svg>
